<?xml version="1.0" standalone="no"?><!DOCTYPE svg PUBLIC "-//W3C//DTD SVG 1.1//EN" "http://www.w3.org/Graphics/SVG/1.1/DTD/svg11.dtd"><svg t="1530171813732" class="icon" style="" viewBox="0 0 1024 1024" version="1.1" xmlns="http://www.w3.org/2000/svg" p-id="1862" xmlns:xlink="http://www.w3.org/1999/xlink" width="200" height="200"><defs><style type="text/css"></style></defs><path d="M607.573333 667.921067c-103.3728 74.5472-248.4736 65.297067-341.504-27.7504-103.304533-103.304533-103.304533-270.7968 0-374.101334 103.304533-103.304533 270.7968-103.304533 374.101334 0 93.047467 93.0304 102.2976 238.1312 27.7504 341.504l147.234133 147.2512a34.133333 34.133333 0 0 1 0 48.264534l-12.066133 12.066133a34.133333 34.133333 0 0 1-48.264534 0L607.573333 667.921067z m-191.761066-136.430934L343.3984 459.093333a17.066667 17.066667 0 1 0-24.132267 24.149334l84.48 84.48a17.015467 17.015467 0 0 0 24.132267 0l156.8768-156.893867a17.066667 17.066667 0 0 0-24.132267-24.132267l-144.810666 144.810667z m200.226133-241.288533l-13.090133 36.130133c65.416533 77.1072 61.730133 192.802133-11.042134 265.5744a195.242667 195.242667 0 0 1-105.0112 54.5792l-13.090133 36.113067a229.461333 229.461333 0 0 0 142.2336-66.56c89.975467-89.975467 89.975467-235.861333 0-325.8368zM314.368 314.368a195.413333 195.413333 0 0 1 127.1808-57.156267l14.523733-34.4576a229.717333 229.717333 0 0 0-165.853866 67.464534c-89.975467 89.975467-89.975467 235.861333 0 325.8368l14.523733-34.440534c-66.884267-77.1072-63.675733-193.962667 9.6256-267.264z m319.7952 331.861333l144.810667 144.810667 12.066133-12.066133-144.810667-144.810667-12.066133 12.066133z" p-id="1863"></path></svg>