<?xml version="1.0" standalone="no"?><!DOCTYPE svg PUBLIC "-//W3C//DTD SVG 1.1//EN" "http://www.w3.org/Graphics/SVG/1.1/DTD/svg11.dtd"><svg t="1529631951079" class="icon" style="" viewBox="0 0 1024 1024" version="1.1" xmlns="http://www.w3.org/2000/svg" p-id="4421" xmlns:xlink="http://www.w3.org/1999/xlink" width="200" height="200"><defs><style type="text/css"></style></defs><path d="M67.474252 853.213265c0 38.616506 31.42778 70.146617 70.097498 70.146617l748.406245 0c38.615483 0 69.940932-31.530111 69.940932-70.146617L955.918927 315.349201 67.474252 315.349201 67.474252 853.213265zM511.724219 432.279331l374.253776 0 0 46.833655-374.253776 0L511.724219 432.279331zM511.724219 525.818727l374.253776 0 0 46.807049-374.253776 0L511.724219 525.818727zM511.724219 619.35403l374.253776 0 0 46.731324-374.253776 0L511.724219 619.35403zM511.724219 712.816678l374.253776 0 0 46.832631-374.253776 0L511.724219 712.816678zM511.724219 806.379611l374.253776 0 0 46.833655-374.253776 0L511.724219 806.379611zM137.57175 432.279331l280.739962 0 0 420.933935L137.57175 853.213265 137.57175 432.279331z" p-id="4422"></path><path d="M885.979018 81.517595 137.57175 81.517595c-38.669718 0-70.097498 31.530111-70.097498 70.172199L67.474252 268.620947l888.444675 0L955.918927 151.689794C955.918927 113.047706 924.594501 81.517595 885.979018 81.517595M160.988066 221.836411c-25.831318 0-46.626947-20.923542-46.626947-46.75486 0-25.830295 20.796652-46.806026 46.626947-46.806026 25.830295 0 46.783513 20.97573 46.783513 46.806026C207.771579 200.912869 186.817338 221.836411 160.988066 221.836411M301.283346 221.836411c-25.831318 0-46.783513-20.923542-46.783513-46.75486 0-25.830295 20.952194-46.806026 46.783513-46.806026 25.880437 0 46.833655 20.97573 46.833655 46.806026C348.115977 200.912869 327.16276 221.836411 301.283346 221.836411M441.576579 221.836411c-25.830295 0-46.832631-20.923542-46.832631-46.75486 0-25.830295 21.002336-46.806026 46.832631-46.806026 25.880437 0 46.781466 20.97573 46.781466 46.806026C488.358045 200.912869 467.455993 221.836411 441.576579 221.836411" p-id="4423"></path><path d="M159.190117 455.361025l237.453087 0 0 373.819894-237.453087 0 0-373.819894Z" p-id="4424"></path></svg>