<?xml version="1.0" standalone="no"?><!DOCTYPE svg PUBLIC "-//W3C//DTD SVG 1.1//EN" "http://www.w3.org/Graphics/SVG/1.1/DTD/svg11.dtd"><svg t="1529631982691" class="icon" style="" viewBox="0 0 1039 1024" version="1.1" xmlns="http://www.w3.org/2000/svg" p-id="4800" xmlns:xlink="http://www.w3.org/1999/xlink" width="202.9296875" height="200"><defs><style type="text/css"></style></defs><path d="M90.205465 842.34473c0.030699-0.699941 0.071631-1.396813 0.106424-2.095731C90.24128 840.937684 90.205465 841.637626 90.205465 842.34473z" p-id="4801"></path><path d="M1011.480872 794.529725 832.984548 475.506854c12.262278-35.155684 18.947538-72.977082 18.947538-112.329345C851.932086 174.804235 699.243545 22.116717 510.871293 22.116717S169.809477 174.804235 169.809477 363.17751c0 39.352263 6.684236 77.148078 18.947538 112.329345L10.261715 794.529725c-25.708522 45.961798-1.432629 67.473741 18.394952 65.161069 19.85214-2.312672 171.584913-41.212634 171.584913-41.212634s40.433898 136.052652 56.039317 168.56923c9.097192 19.72832 41.137932 25.306362 65.161069-18.394952L470.713688 701.875488c13.167904 1.557472 26.587542 2.362814 40.157605 2.362814 13.594623 0 26.989701-0.804319 40.156582-2.362814l149.271722 266.776949c23.998577 43.701315 56.062853 38.123272 65.161069 18.394952 15.629979-32.516578 56.013735-168.56923 56.013735-168.56923s151.759379 38.900985 171.585937 41.212634C1012.93806 862.002442 1037.18837 840.491523 1011.480872 794.529725zM285.481963 934.827051l-55.988152-168.594813L57.906851 807.470455l155.352207-277.634228c44.202735 78.80788 118.813013 138.239458 207.949122 162.464185L285.481963 934.827051zM525.371542 656.013975c-4.799306 0.227174-9.650801 0.352017-14.500249 0.352017-4.876054 0-9.699919-0.124843-14.499226-0.352017-17.439184-0.854461-34.452673-3.216251-50.988278-6.985088-91.824335-20.958334-167.238932-85.014232-203.827245-169.776731-8.696056-20.179598-15.204283-41.540092-19.224854-63.72844-3.065825-16.987906-4.64888-34.502815-4.64888-52.345182 0-161.937183 131.252323-293.215088 293.189506-293.215088 161.936159 0 293.214065 131.277906 293.214065 293.215088 0 17.866926-1.608637 35.357276-4.674463 52.345182-4.021593 22.213931-10.528797 43.548842-19.22383 63.72844-36.589336 84.762499-112.003933 148.818397-203.829292 169.776731C559.824215 652.797723 542.810726 655.159514 525.371542 656.013975zM792.249799 766.232239l-55.990199 168.594813L600.558965 692.300412c89.109504-24.224728 163.719782-83.656305 207.92354-162.464185L963.834712 807.470455 792.249799 766.232239z" p-id="4802"></path><path d="M478.680127 429.217598c5.050016 0.578168 10.528797 0.880043 16.358573 0.880043 7.389294 0 11.106965-3.996011 11.106965-11.987009 0.778736-15.781428 1.156336-31.05939 1.156336-45.887097l-23.647583 0C483.45385 392.503419 481.795071 411.476539 478.680127 429.217598z" p-id="4803"></path><path d="M753.850234 363.17751c0-134.194328-108.787682-242.979964-242.97894-242.979964-134.193305 0-242.979964 108.785635-242.979964 242.979964 0 134.192282 108.786659 242.977917 242.979964 242.977917C645.063575 606.155427 753.850234 497.369791 753.850234 363.17751zM400.650983 227.601718c11.685133 15.20326 23.571858 31.939433 35.659151 50.259684-12.464893 7.990998-23.370267 15.001669-32.718169 21.033036-10.328229-17.515932-21.334911-34.955116-33.021068-52.29504L400.650983 227.601718zM372.909152 463.093127c5.653767-6.407943 8.570189-14.70184 8.770757-24.828478l0-85.894276-18.696828 0 0-38.57455 53.450353 0 0 103.433744c5.478781-6.634094 11.106965-13.242606 16.937764-19.877723 0 15.002692 1.106194 30.106692 3.240811 45.284369-14.600533 14.424524-29.226648 30.683836-43.826158 48.802496L372.909152 463.093127zM645.214001 488.524333c-5.453199 17.138332-14.021342 25.708522-25.706475 25.708522-18.11866 0-33.122375-13.645788-45.008077-40.910759-13.041014 15.001669-27.064402 28.723182-42.066071 41.188074-7.589862-8.544607-16.45988-17.514909-26.586518-26.863834 21.611204-16.761756 40.608883-35.156708 56.968479-55.209416-5.252631-28.64848-8.66945-70.338998-10.226922-125.071553l-68.931952 0 0 30.984688 57.547671 0c-0.201591 18.898419-0.87902 45.861514-2.035356 80.917938-1.557472 29.427216-12.866029 45.007053-33.900088 46.766117-10.529821 0.577145-18.520819 0.678452-23.948435 0.276293-1.180895-10.327206-2.562359-20.052708-4.096295-29.201066-6.231935 30.005384-16.962324 56.190767-32.140001 78.58173-11.308557-9.724479-21.712511-18.017352-31.262004-24.827455 22.793122-28.823466 34.076096-68.654636 33.875528-119.492488l0-100.217493 104.036471 0c-0.200568-14.626115-0.200568-30.006408 0-46.163389l38.272675 0c-0.402159 16.359596-0.602727 31.737842-0.602727 46.163389l27.466562 0c-6.609535-6.231935-14.97711-13.82282-25.130354-22.793122l20.757766-21.034059c12.866029 10.127661 24.425296 19.777439 34.753525 28.924773l-14.902408 14.902408 18.696828 0 0 36.211736L589.703733 307.365366c0.376577 30.582529 1.657756 56.969503 3.794419 79.184457 9.54847-16.937764 17.439184-34.95614 23.671119-54.055127l32.41834 13.747095c-13.620206 34.076096-29.603225 64.558341-47.897893 91.445712 1.760087 6.811126 3.794419 12.766768 6.132674 17.816784 2.711761 6.434549 6.231935 10.127661 10.504238 11.106965 4.095271 0 6.734378-2.337231 7.890714-7.010671 1.959631-10.127661 3.316535-23.093974 4.096295-38.876426 6.608511 3.920286 14.499226 7.992021 23.672142 12.288884C652.024104 453.065749 649.109728 471.585545 645.214001 488.524333z" p-id="4804"></path></svg>