<?xml version="1.0" standalone="no"?><!DOCTYPE svg PUBLIC "-//W3C//DTD SVG 1.1//EN" "http://www.w3.org/Graphics/SVG/1.1/DTD/svg11.dtd"><svg t="1536733445841" class="icon" style="" viewBox="0 0 1024 1024" version="1.1" xmlns="http://www.w3.org/2000/svg" p-id="1432" xmlns:xlink="http://www.w3.org/1999/xlink" width="32" height="32"><defs><style type="text/css"></style></defs><path d="M160.43253135 405.16705758h702.08191769c15.90543869 0 30.41860082 6.53400681 41.01047707 17.07301304l0.05287205 0.05287103 0.05287105 0.05287102h-0.00440635c10.53900516 10.58747089 17.07301196 25.10063199 17.07301196 41.00607066v486.37156834c0 15.90543869-6.53400681 30.41860082-17.07301196 41.00607065l0.00440635 0.00440634-0.05287105 0.04846469-0.05287205 0.05287209c-10.58747089 10.53900516-25.10063199 17.07301196-41.01047707 17.07301195H160.43253135c-15.92746835 0-30.46706551-6.55603648-41.05894275-17.12588404l-0.05287102 0.05287209A58.01299464 58.01299464 0 0 1 102.24770562 949.72785799V463.35628972a58.02621158 58.02621158 0 0 1 17.07301196-41.11181383l0.05287103 0.05287104c10.59187621-10.57425288 25.12706806-17.13028932 41.05894274-17.13028935z m702.08191769 52.87126431H160.43253135c-1.5024249 0-2.81980068 0.56836652-3.73183046 1.47598892v0.10133675a5.28272006 5.28272006 0 0 0-1.57732562 3.73183048v486.37156726c0 1.43193059 0.60801953 2.75371163 1.57732562 3.73183045v0.09693037c0.91202981 0.91202981 2.22940451 1.48039521 3.73183046 1.4803953h702.08191769c1.5024249 0 2.81980068-0.56836652 3.73183048-1.4803953l0.10133681-0.09693037c0.90762342-0.91202981 1.47598996-2.22940451 1.47598885-3.73183045v-486.37156726c0-1.49801961-0.56836652-2.81980068-1.47598885-3.73183048l-0.10133681-0.10133675a5.25628506 5.25628506 0 0 0-3.73183048-1.47598892z" fill="#bbbbbb" p-id="1433"></path><path d="M271.97327452 291.7229499l-0.31282194 139.87973983H219.00067342l0.31722827-142.35587724h5.78499762l-5.99648274-0.73138595C228.74660996 211.27491612 263.63723783 143.16791641 314.52582952 93.25303724c51.20581892-50.22329475 118.57262103-82.02095407 192.80828158-86.27268535 83.57625003-4.78925538 161.59220574 26.01266181 220.62297222 80.1043715 58.68269685 53.7832931 98.53000591 130.52593234 106.19633934 218.00143766l-52.66418549 4.54252351c-6.48554214-74.01095739-39.89577478-138.66370088-89.05283199-183.71883032-48.8222066-44.73790117-113.25465328-70.2174442-182.20318631-66.26531683-61.00022114 3.49390926-116.46658191 29.73567957-158.7371584 71.19556196-41.88725913 41.08097242-70.84749336 97.12010609-79.52278594 160.88285053zM504.67292349 713.2126651c37.56062712 0 68.19511852-30.6388977 68.19511849-68.19952482 0-37.56062712-30.63449134-68.19952483-68.1951185-68.19952486-37.56062712 0-68.19952483 30.6388977-68.19952378 68.19952486 0.00440633 37.56062712 30.6388977 68.19952483 68.19952378 68.19952483z" fill="#bbbbbb" p-id="1434"></path><path d="M482.97367565 699.71286842h43.3588427v158.61379197h-43.3588427z" fill="#bbbbbb" p-id="1435"></path></svg>