<?xml version="1.0" standalone="no"?><!DOCTYPE svg PUBLIC "-//W3C//DTD SVG 1.1//EN" "http://www.w3.org/Graphics/SVG/1.1/DTD/svg11.dtd"><svg t="1530158384205" class="icon" style="" viewBox="0 0 1024 1024" version="1.1" xmlns="http://www.w3.org/2000/svg" p-id="2131" xmlns:xlink="http://www.w3.org/1999/xlink" width="200" height="200"><defs><style type="text/css"></style></defs><path d="M255.872 703.616h63.936v255.808h-64v-255.808z m447.68 0h64v255.808h-64v-255.808z" fill="#333333" p-id="2132"></path><path d="M255.872 895.488h511.68v64H255.872zM959.36 255.872h-191.808V64H255.872v191.872H63.936a64 64 0 0 0-63.936 64v383.744a64 64 0 0 0 64 64h127.872v-128h639.616v128h127.936a64 64 0 0 0 64-64V319.872a64 64 0 0 0-64-64zM319.872 128h383.744v128H319.808v-128z m639.616 544.32a31.36 31.36 0 0 1-32 31.36h-32V575.68H128v127.936h-32a32 32 0 0 1-32-31.36V352.448a31.36 31.36 0 0 1 32-32.64h831.488a32 32 0 0 1 32 31.36v321.088z" fill="#333333" p-id="2133"></path><path d="M191.872 383.808h191.872v64H191.872z" fill="#333333" p-id="2134"></path></svg>