<?xml version="1.0" standalone="no"?><!DOCTYPE svg PUBLIC "-//W3C//DTD SVG 1.1//EN" "http://www.w3.org/Graphics/SVG/1.1/DTD/svg11.dtd"><svg t="1536116331618" class="icon" style="" viewBox="0 0 1024 1024" version="1.1" xmlns="http://www.w3.org/2000/svg" p-id="2896" xmlns:xlink="http://www.w3.org/1999/xlink" width="220" height="220"><defs><style type="text/css"></style></defs><path d="M512.00216268 920.1679676c-53.89779952 0-106.24125585-10.14447585-155.47695272-30.25454373-47.58774089-19.33150598-90.26498081-47.04274758-126.94266-82.35423603-36.67767919-35.31241532-65.46129707-76.45941042-85.60287817-122.24533669-20.82560329-47.40144216-31.39365389-97.76698059-31.39365387-149.68778906 0-62.12553019 15.82148953-123.80153358 45.72289982-178.4454549 28.90689019-52.78834884 70.90010789-99.14243991 121.47233597-134.03591479 14.04933441-9.69587592 33.56899284-6.55382264 43.60873359 6.94310357 10.03974075 13.49599936 6.8374416 32.26026741-7.21096594 41.89589747-42.7393395 29.56681406-78.20468662 68.64876647-102.57367331 113.20753093-25.58131875 46.7137125-38.5434471 97.31838066-38.5434471 150.43576457 0 86.66413215 35.06123644 168.15082781 98.71979203 229.40881763 63.62704237 61.28764931 148.23540043 95.04386775 238.21954284 95.04386775 89.95448293 0 174.59342732-33.75621844 238.25105606-95.04386775 63.65762874-61.25706296 98.68827881-142.74468548 98.68827882-229.40881763 0-53.05806493-12.93061515-103.75171157-38.54344712-150.43576457-24.36898669-44.52910496-59.86584703-83.64164372-102.60518653-113.14913878-14.01874804-9.63655692-17.28221991-28.39897125-7.21096594-41.89682434 10.07125397-13.49599936 29.56032605-16.66863899 43.5790741-6.94310357 50.6037413 34.89347489 92.65813172 81.24756595 121.53443555 134.03591479 29.93292352 54.64484817 45.75441305 116.32085156 45.75441303 178.4454549 0 51.92080847-10.56805059 102.28542004-31.42516709 149.7165217-20.11006785 45.78592626-48.92427211 86.93292136-85.60287816 122.24533668-36.67767919 35.31241532-79.3549191 62.99307056-126.94266 82.41448191-49.26628322 19.98957614-101.58008006 30.10531935-155.47695272 30.10531935v0 0zM521.38939443 502.88753524c-17.25070669 0-31.23794151-13.406094-31.23794151-30.0450735v-356.17259377c0-16.57873364 13.98723482-30.07565985 31.23794151-30.07565985s31.26945473 13.49692622 31.26945474 30.07565985v356.17259377c0 16.63805264-14.01874804 30.0450735-31.26945474 30.04507349v0 0z" p-id="2897" fill="#F13131"></path></svg>