<?xml version="1.0" standalone="no"?><!DOCTYPE svg PUBLIC "-//W3C//DTD SVG 1.1//EN" "http://www.w3.org/Graphics/SVG/1.1/DTD/svg11.dtd"><svg t="1529631967551" class="icon" style="" viewBox="0 0 1024 1024" version="1.1" xmlns="http://www.w3.org/2000/svg" p-id="4620" xmlns:xlink="http://www.w3.org/1999/xlink" width="200" height="200"><defs><style type="text/css"></style></defs><path d="M847.499124 64.021106 175.912475 64.021106c-61.817927 0-111.931279 50.113351-111.931279 111.931279l0 671.586648c0 61.817927 50.113351 111.931279 111.931279 111.931279l671.586648 0c61.815881 0 111.931279-50.113351 111.931279-111.931279L959.430402 175.952384C959.430402 114.134457 909.315004 64.021106 847.499124 64.021106zM839.269695 443.469184 711.566198 549.509289c-11.830443 9.82374-16.949021 25.580608-13.153578 40.479947l40.98853 160.848385c8.894577 34.910091-29.433356 62.756299-59.884902 43.508933l-140.310629-88.684832c-12.998035-8.216125-29.565363-8.216125-42.566468 0L356.329545 794.346553c-30.451546 19.247366-68.777433-8.598842-59.882855-43.508933l40.98546-160.848385c3.796466-14.900362-1.323135-30.656207-13.153578-40.479947L196.576097 443.469184c-27.714202-23.011086-13.075807-68.069305 22.87294-70.396303l165.642574-10.723226c15.346523-0.994654 28.749788-10.732435 34.4363-25.019837l61.385069-154.219407c13.3214-33.471322 60.697407-33.471322 74.019831 0l61.385069 154.219407c5.688559 14.287401 19.092847 24.025183 34.4363 25.019837l165.642574 10.723226C852.345502 375.399879 866.985944 420.457074 839.269695 443.469184z" p-id="4621"></path></svg>