<?xml version="1.0" standalone="no"?><!DOCTYPE svg PUBLIC "-//W3C//DTD SVG 1.1//EN" "http://www.w3.org/Graphics/SVG/1.1/DTD/svg11.dtd"><svg t="1529631893722" class="icon" style="" viewBox="0 0 1024 1024" version="1.1" xmlns="http://www.w3.org/2000/svg" p-id="2958" xmlns:xlink="http://www.w3.org/1999/xlink" width="200" height="200"><defs><style type="text/css"></style></defs><path d="M971.917871 1024.000702l0 0zM513.769376 186.361952c-31.312304 0-59.272156-29.450264-59.272156-62.628509s27.955951-62.628509 59.272156-62.628509c34.853983 0 59.272156 29.450264 59.272156 62.628509 0 40.448879-27.955951 62.628509-59.272156 62.628509l0 0zM677.42108 90.558124c-17.333841 0-27.955951-14.72562-27.955951-29.450264l0 0c0-29.450264-24.417198-55.170598-55.728527-55.170598l-163.836055 0c-31.312304 0-55.728527 25.722284-55.728527 55.170598l0 0c0 18.450674-13.979439 29.450264-27.955951 29.450264l-20.876495 0c-17.333841 0-27.955951 14.72562-27.955951 29.450264l0 88.348842c0 18.450674 13.979439 29.450264 27.955951 29.450264l369.426074 0c17.333841 0 27.955951-14.72562 27.955951-29.450264l0-88.348842c0-18.450674-13.979439-29.450264-27.955951-29.450264l-17.333841 0zM799.508047 469.862078l-310.152943 383.219211c-6.895105 10.996664-27.955951 7.455961-38.396637-3.728956l-209.127797-180.424689c-3.540703-3.728956-6.895105-10.996664 0-14.72562l38.396637-47.902889c3.540703-3.728956 10.43776-3.728956 13.979439 0l163.836055 139.980687c6.895105 3.728956 13.979439 3.728956 20.876495-3.728956l257.776867-331.588342c3.540703-7.455961 10.43776-7.455961 13.979439-3.728956l48.832446 44.175884c6.895105 3.728956 10.43776 7.455961 0 18.450674l0 0zM799.508047 156.912663l0 128.982072c0 18.450674-13.979439 29.450264-27.955951 29.450264l-519.284641 3.728956c-17.333841 0-27.955951-14.72562-27.955951-29.450264l0-128.982072c0-18.450674-13.979439-29.450264-27.955951-29.450264l-17.333841 0c-45.292718-3.728956-66.171163 25.722284-66.171163 66.354539l0 718.348257c0 33.177269 31.312304 77.351203 73.250619 77.351203l651.621115 0c34.853983 0 73.250619-40.448879 73.250619-77.351203l0-722.262539c0-33.177269-24.417198-66.354539-62.81286-66.354539l-17.333841 0c-17.333841 0.187277-31.312304 11.185892-31.312304 29.63559l0 0zM379.383586 795.672148l0 0z" p-id="2959"></path></svg>