<?xml version="1.0" standalone="no"?><!DOCTYPE svg PUBLIC "-//W3C//DTD SVG 1.1//EN" "http://www.w3.org/Graphics/SVG/1.1/DTD/svg11.dtd"><svg t="1529632042382" class="icon" style="" viewBox="0 0 1024 1024" version="1.1" xmlns="http://www.w3.org/2000/svg" p-id="5853" xmlns:xlink="http://www.w3.org/1999/xlink" width="200" height="200"><defs><style type="text/css"></style></defs><path d="M790.619 587.911c14.567 7.284 21.851 19.671 21.851 37.153v166.076c0 10.927-3.278 20.395-9.833 28.41s-14.932 12.018-25.129 12.018h-536.478c-9.47 0-17.481-4.005-24.037-12.018s-9.833-17.481-9.833-28.41v-166.076c0-17.481 7.284-29.867 21.851-37.153l209.782-97.244c-27.679-16.754-48.804-40.791-63.373-72.113-13.84-27.679-20.758-57.181-20.758-88.503 0-9.47 0.73-18.575 2.187-27.317 3.648-21.735 9.473-41.158 17.387-59.463-1.727-2.815 16.665-33.407 43.251-57.445s57.362-36.058 92.329-36.058c35.692 0 67.017 12.384 93.966 37.15s45.162 56.087 54.631 93.966c3.643 18.21 5.467 34.599 5.467 49.168 0 29.138-5.831 57.181-17.481 84.133-14.567 32.78-35.692 57.545-63.373 74.298l62.279 29.499 145.316 69.926zM207.158 542.021c-16.025 7.284-28.589 18.395-37.696 33.326-9.106 14.932-13.657 31.504-13.657 49.716v140.944h-112.54c-8.014 0-14.567-3.091-19.667-9.283-5.1-6.194-7.648-14.022-7.648-23.49v-133.305c0-16.028 5.826-26.222 17.481-30.595l169.356-78.668c-20.395-12.384-36.785-30.048-49.168-52.992s-18.575-48.622-18.575-77.029c0-19.667 3.278-38.423 9.833-56.271 6.557-17.846 15.478-33.326 26.768-46.436 11.289-13.11 24.402-23.49 39.335-31.14 14.932-7.648 31.14-11.472 48.622-11.472 11.654 0 22.58 1.822 32.78 5.462s20.032 8.375 29.499 14.205c-12.384 30.595-18.575 62.279-18.575 95.058 0 25.494 3.643 50.079 10.927 73.751 7.284 23.673 17.481 44.98 30.595 63.918-8.014 8.74-16.388 15.662-25.129 20.758l-112.54 53.538zM989.474 569.335c11.652 5.826 17.481 16.025 17.481 30.595v133.3c0 9.47-2.553 17.296-7.648 23.49-5.1 6.192-11.654 9.283-19.671 9.283h-115.817v-140.944c0-18.21-4.555-34.782-13.655-49.716-9.107-14.929-21.307-26.041-36.604-33.326l-108.17-51.349c-10.196-5.826-20.035-14.205-29.499-25.129 12.386-18.938 22.034-39.881 28.956-62.825s10.38-47.166 10.38-72.659c0-16.754-1.456-32.78-4.37-48.076s-7.284-30.229-13.11-44.798c9.47-6.557 19.667-11.837 30.595-15.842s22.217-6.009 33.874-6.009c17.481 0 33.871 3.824 49.166 11.472 15.297 7.648 28.596 18.027 39.885 31.14 11.286 13.11 20.21 28.589 26.765 46.436 6.559 17.846 9.837 36.604 9.837 56.271 0 27.679-6.194 52.992-18.575 75.936-12.386 22.945-28.043 40.609-46.983 52.992l167.168 79.762z" p-id="5854"></path></svg>