<?xml version="1.0" standalone="no"?><!DOCTYPE svg PUBLIC "-//W3C//DTD SVG 1.1//EN" "http://www.w3.org/Graphics/SVG/1.1/DTD/svg11.dtd"><svg t="1536733561401" class="icon" style="" viewBox="0 0 1024 1024" version="1.1" xmlns="http://www.w3.org/2000/svg" p-id="1558" xmlns:xlink="http://www.w3.org/1999/xlink" width="32" height="32"><defs><style type="text/css"></style></defs><path d="M511.93746344 69.1053283c51.40505782 0 99.80836038 19.63648191 135.95449593 55.28232493C683.85048516 159.72081337 703.67457677 206.74831147 703.54950369 256.71502822c0 103.43548126-85.98777914 187.60969993-191.61204025 187.6097S320.26288664 360.1505095 320.26288664 256.71502822c0-49.90418022 19.69901849-96.86914173 55.78261746-132.26483846C412.19163962 88.7418102 460.46986909 69.1053283 511.93746344 69.1053283M617.81187079 652.75910485c146.71078537 0 266.03055453 116.88084308 266.09309109 260.52733667l0 11.19404544C844.75707115 944.61726141 698.42150518 944.61726141 617.81187079 944.61726141L406.06305609 944.61726141c-92.4290455 0-229.44666307 0-265.96801796-19.01111629l0-12.3197036c0-143.64649358 119.25723263-260.52733665 265.96801796-260.52733665L617.81187079 652.75910485M511.93746344 6.56876165C371.48033475 6.56876165 257.66378345 118.50921596 257.72631997 256.71502822c0 138.08073917 113.75401473 250.14626659 254.21114346 250.14626663s254.14860687-112.06552745 254.14860688-250.14626663C766.21114344 118.50921596 652.39459214 6.56876165 511.93746344 6.56876165L511.93746344 6.56876165zM617.81187079 590.22253817L406.06305609 590.22253817c-181.41857986 0-328.50458461 144.64707866-328.50458463 323.06390335l1e-8 20.88721326C77.55847146 1007.0912915 224.64447624 1007.15382805 406.06305609 1007.15382805l211.93642439 0c181.35604332 0 328.50458461-2.68907238 328.50458461-72.98017327l0-20.88721326C946.37899196 734.86961688 799.35552376 590.22253817 617.81187079 590.22253817L617.81187079 590.22253817z" fill="#bbbbbb" p-id="1559"></path></svg>