<?xml version="1.0" standalone="no"?><!DOCTYPE svg PUBLIC "-//W3C//DTD SVG 1.1//EN" "http://www.w3.org/Graphics/SVG/1.1/DTD/svg11.dtd"><svg t="1530166400356" class="icon" style="" viewBox="0 0 1024 1024" version="1.1" xmlns="http://www.w3.org/2000/svg" p-id="1463" xmlns:xlink="http://www.w3.org/1999/xlink" width="200" height="200"><defs><style type="text/css"></style></defs><path d="M989 984M989 1006 35 1006c-17.673 0-32-14.327-32-32s14.327-32 32-32l954 0c17.673 0 32 14.327 32 32S1006.673 1006 989 1006zM19 948 92 736 297 949ZM150 665 352 874 796 431 592 226ZM659 148l202 202 58-60c0 0 22-32 15-57S801 97 787 83s-41-12-71 13S659 148 659 148z" p-id="1464"></path></svg>